<?xml version="1.0" standalone="no"?>
<!DOCTYPE svg PUBLIC "-//W3C//DTD SVG 20010904//EN"
 "http://www.w3.org/TR/2001/REC-SVG-20010904/DTD/svg10.dtd">
<svg version="1.0" xmlns="http://www.w3.org/2000/svg"
 width="500.000000pt" height="500.000000pt" viewBox="0 0 500.000000 500.000000"
 preserveAspectRatio="xMidYMid meet">

<g transform="translate(0.000000,500.000000) scale(0.100000,-0.100000)"
fill="#000000" stroke="none">
<path d="M150 2500 l0 -2350 2350 0 2350 0 0 2350 0 2350 -2350 0 -2350 0 0
-2350z m1044 1494 c180 -46 296 -168 320 -336 l7 -48 -135 0 -135 0 -11 40
c-14 52 -61 106 -108 121 -20 7 -68 13 -107 13 -116 0 -195 -53 -195 -132 0
-67 62 -102 260 -148 365 -85 483 -194 467 -427 -12 -180 -121 -297 -329 -355
-46 -12 -99 -17 -198 -16 -120 0 -144 3 -215 28 -142 49 -223 116 -276 230
-16 35 -32 88 -35 124 l-7 62 141 0 140 0 12 -51 c27 -112 136 -176 284 -167
150 10 232 100 181 198 -22 42 -89 73 -261 119 -178 47 -224 64 -282 97 -67
40 -111 83 -140 138 -23 44 -26 63 -27 146 0 84 3 102 27 151 78 158 265 247
488 232 41 -2 102 -11 134 -19z m816 -249 l0 -255 205 0 205 0 2 253 3 252
148 3 147 3 0 -636 0 -635 -150 0 -150 0 0 255 0 255 -205 0 -205 0 0 -255 0
-255 -140 0 -140 0 0 635 0 635 140 0 140 0 0 -255z m1220 -380 l0 -635 -140
0 -140 0 0 635 0 635 140 0 140 0 0 -635z m710 250 c117 -212 216 -388 221
-391 5 -3 9 159 9 385 l0 391 135 0 135 0 0 -635 0 -635 -137 0 -138 0 -215
390 -215 390 -3 -390 -2 -390 -140 0 -140 0 0 635 0 635 139 0 139 0 212 -385z
m-2195 -1605 l0 -125 -227 -3 -228 -2 0 -125 0 -125 220 0 220 0 0 -125 0
-125 -220 0 -220 0 0 -130 0 -130 230 0 230 0 0 -125 0 -125 -370 0 -370 0 0
635 0 635 368 -2 367 -3 0 -125z m433 103 c5 -16 68 -188 139 -383 72 -195
141 -385 153 -422 13 -38 27 -68 30 -68 4 0 12 19 19 43 10 32 274 758 306
840 6 15 24 17 157 17 138 0 149 -1 144 -17 -4 -10 -118 -295 -255 -633 l-249
-615 -122 0 -122 0 -249 615 c-137 338 -252 623 -255 633 -5 16 6 17 144 17
l150 0 10 -27z m1812 -103 l0 -130 -230 0 -231 0 3 -122 3 -123 218 -3 217 -2
0 -125 0 -125 -220 0 -221 0 3 -127 3 -128 228 -3 227 -2 0 -125 0 -125 -370
0 -370 0 0 628 c0 346 3 632 7 635 3 4 170 7 370 7 l363 0 0 -130z"/>
</g>
</svg>
